<svg xmlns="http://www.w3.org/2000/svg" viewBox="0 0 64 64">
  <defs>
    <linearGradient id="bg" x1="0" y1="0" x2="1" y2="1">
      <stop stop-color="#080c24" />
      <stop offset=".62" stop-color="#09295c" />
      <stop offset="1" stop-color="#11b5d0" />
    </linearGradient>
    <radialGradient id="glow" cx=".78" cy=".92" r=".8">
      <stop stop-color="#20c9de" stop-opacity=".75" />
      <stop offset="1" stop-color="#20c9de" stop-opacity="0" />
    </radialGradient>
  </defs>
  <rect width="64" height="64" rx="16" fill="url(#bg)" />
  <rect width="64" height="64" rx="16" fill="url(#glow)" />
  <path
    fill="#fff"
    d="M17 35c-2-3-2-8 0-12 3-7 10-11 19-11h18c2 0 3 3 1 4L34 27l-5-5-9 9 4 4H17Zm30-6c2 3 2 8 0 12-3 7-10 11-19 11H10c-2 0-3-3-1-4l21-11 5 5 9-9-4-4h7Z"
  />
  <path fill="#fff" d="m32 24 8 8-8 8-8-8 8-8Z" />
</svg>
